<?xml version="1.0" encoding="UTF-8"?>
<svg id="Ebene_2" data-name="Ebene 2" xmlns="http://www.w3.org/2000/svg" viewBox="0 0 268.33 330.11">
  <defs>
    <style>
      .cls-1 {
        fill: #f2f0eb;
      }

      .cls-2 {
        fill: #6e46b4;
      }

      .cls-3 {
        fill: #1d1e1d;
      }
    </style>
  </defs>
  <g id="Ebene_2_Kopie" data-name="Ebene 2 Kopie">
    <path class="cls-2" d="M172.37,231.77l62.71-71.74c1.11-1.27,3.08-1.28,4.23-.05,10.77,11.53,11.28,29.71.69,41.83l-7.02,8.03c-1.91,2.18.31,5.48,3.05,4.55l27.81-9.49c1.6-.55,3.31.43,3.69,2.08,3.56,15.37-5.09,31.37-20.32,36.57l-13.08,4.46c-2.59.88-2.55,4.57.06,5.39,6.29,1.97,14.58,4.57,18.87,5.91,1.62.51,2.41,2.3,1.75,3.86-6.21,14.5-22.65,22.3-38.01,17.48-13.43-4.21-28.75-6.36-40.33-15.36-10.52-8.18-13.27-23.03-4.1-33.52Z"/>
    <path class="cls-2" d="M83.13,238.98l-54.33-62.16c-.96-1.1-2.67-1.11-3.67-.04-9.33,9.99-9.77,25.74-.6,36.24l6.08,6.96c1.65,1.89-.26,4.75-2.64,3.94l-24.09-8.22c-1.39-.47-2.87.37-3.2,1.8-3.08,13.31,4.41,27.18,17.61,31.68l11.33,3.87c2.25.77,2.21,3.96-.05,4.67-5.45,1.71-12.63,3.96-16.35,5.12-1.4.44-2.09,1.99-1.51,3.34,5.38,12.56,19.62,19.32,32.93,15.15,11.63-3.64,24.91-5.51,34.94-13.31,9.11-7.09,11.5-19.95,3.55-29.04Z"/>
    <path class="cls-1" d="M29.86,62.91c21.4-3.29,34.31-14.31,38.54-18.49.74-.73.45-1.97-.52-2.33-20.91-7.71-17.69-24.25-15.92-29.8.29-.92,1.39-1.27,2.17-.71,4.1,2.95,16.27,10.26,31.36,6C104.14,12.32,99.64-1.99,123.14.23c14.68,1.39,21.4,14.58,24.37,24.29.35,1.14,1.86,1.38,2.52.39,7.94-11.86,22.73-18.05,37.37-14.39h0c-2.4,9.6-8.57,17.26-16.53,21.8-1.24.71-.75,2.6.68,2.63,15.26.3,34.59,7.42,44.21,37.94.29.91-.4,1.83-1.36,1.83h-21.77c-1.09,0-1.78,1.17-1.23,2.12,2.39,4.15,8.02,12.09,9.73,14.48.31.43.35,1,.1,1.47l-12.49,24.29h0l-.31,1.11c4.75-1.34,9.9-1.52,15.01-.24h0c9.07,2.27,14.64,11.55,12.37,20.62h0c-3.91,15.65-19.92,25.26-35.58,21.34l-1.77-.44c-.75-.19-1.51.26-1.71,1l-3.41,12.34h-.02c-7.57,22.47-28.79,37.66-53.81,37.66-31.36,0-56.78-25.42-56.78-56.78,0,0,.19-57.92.53-68.1.03-.78-.59-1.43-1.38-1.46-20.12-.85-30.03-14.12-33.04-19.07-.53-.87,0-1.98,1.02-2.14Z"/>
    <rect class="cls-3" x="78.36" y="105.23" width="16.23" height="32.42" rx="8.11" ry="8.11"/>
    <rect class="cls-3" x="132.07" y="114.33" width="32.42" height="16.23" rx="8.11" ry="8.11" transform="translate(13.38 259.49) rotate(-85)"/>
    <rect class="cls-3" x="140.57" y="57.6" width="21.2" height="42.37" rx="10.6" ry="10.6" transform="translate(31.91 200.6) rotate(-73.14)"/>
    <rect class="cls-3" x="68.3" y="69.15" width="35.21" height="21.2" rx="9.69" ry="9.69" transform="translate(-19.32 28.11) rotate(-16.73)"/>
    <path class="cls-3" d="M140.71,156.71c-4.71,6.14-12.3,9.92-20.02,9.93-1.13-.08-2.4-.11-3.51-.25-.76-.18-2.67-.46-3.4-.67-.72-.22-2.52-.81-3.26-1.04-1.4-.55-2.75-1.21-4.11-1.81-2.11-.96-.9-4.16,1.31-3.48,1.93.64,4,1.42,6.01,1.76,0,0,.97.21.97.21.62.09,2.26.21,2.91.28.92.02,1.94-.06,2.87-.07,5.77-.57,11.21-3.82,14.37-8.69,2.41-5.23,9.57-.72,5.87,3.81h0Z"/>
    <path class="cls-1" d="M51.93,111.34c-1.11.14-2.23.35-3.34.63h0c-9.07,2.27-14.64,11.55-12.37,20.62h0c2.36,9.45,9.14,16.69,17.59,20.09-.56-11.9-1.28-27.48-1.88-41.33Z"/>
    <path class="cls-1" d="M203.13,330.11c-1.43-27.81-4.06-61.41-7.49-69.23-6.78-16.37-16.06-27.79-32.46-32.58-6.82-2.34-13.86-3.93-20.97-4.76.33-1.82.51-3.69.51-5.6v-6.4c-.36.17-.72.35-1.08.51-11.91,5.44-25.61,6.63-38.4,3.78.15,4.41.14,8.82.08,13.22.01,3.36-.28,6.73-.2,10.09.35,3.69,3.33,6.87,7.02,7.54,2.44.36,5.11.18,7.56-.22,4.87-.78,9.61-2.81,13.73-5.88.45-.34,1.07-.29,1.46.11.4.42.41,1.09.01,1.51-4.81,5.07-11.62,8.55-18.68,9.46-5,.94-10.5-.45-13.94-4.44-2.08-2.32-3.4-5.37-3.64-8.5-.13-3.09-.22-6.19-.27-9.28-9.62,3.75-19.59,8.52-25.55,17.69-5.23,8.65-17.85,52.88-26.03,82.98h158.34Z"/>
  </g>
</svg>