<?xml version="1.0" encoding="UTF-8"?>
<svg id="Ebene_2" data-name="Ebene 2" xmlns="http://www.w3.org/2000/svg" viewBox="0 0 337.03 330.54">
  <defs>
    <style>
      .cls-1 {
        fill: #f2f0eb;
      }

      .cls-2 {
        fill: #6e46b4;
      }

      .cls-3 {
        fill: #1d1e1d;
      }
    </style>
  </defs>
  <g id="Ebene_2_Kopie" data-name="Ebene 2 Kopie">
    <path class="cls-2" d="M95.96,231.77l-62.71-71.74c-1.11-1.27-3.08-1.28-4.23-.05-10.77,11.53-11.28,29.71-.69,41.83l7.02,8.03c1.91,2.18-.31,5.48-3.05,4.55l-27.81-9.49c-1.6-.55-3.31.43-3.69,2.08-3.56,15.37,5.09,31.37,20.32,36.57l13.08,4.46c2.59.88,2.55,4.57-.06,5.39-6.29,1.97-14.58,4.57-18.87,5.91-1.62.51-2.41,2.3-1.75,3.86,6.21,14.5,22.65,22.3,38.01,17.48,13.43-4.21,28.75-6.36,40.33-15.36,10.52-8.18,13.27-23.03,4.1-33.52Z"/>
    <path class="cls-1" d="M238.47,62.91c-21.4-3.29-34.31-14.31-38.54-18.49-.74-.73-.45-1.97.52-2.33,20.91-7.71,17.69-24.25,15.92-29.8-.29-.92-1.39-1.27-2.17-.71-4.1,2.95-16.27,10.26-31.36,6C164.18,12.32,168.69-1.99,145.19.23c-14.68,1.39-21.4,14.58-24.37,24.29-.35,1.14-1.86,1.38-2.52.39-7.94-11.86-22.73-18.05-37.37-14.39h0c2.4,9.6,8.57,17.26,16.53,21.8,1.24.71.75,2.6-.68,2.63-15.26.3-34.59,7.42-44.21,37.94-.29.91.4,1.83,1.36,1.83h21.77c1.09,0,1.78,1.17,1.23,2.12-2.39,4.15-8.02,12.09-9.73,14.48-.31.43-.35,1-.1,1.47l12.49,24.29h0l.31,1.11c-4.75-1.34-9.9-1.52-15.01-.24h0c-9.07,2.27-14.64,11.55-12.37,20.62h0c3.91,15.65,19.92,25.26,35.58,21.34l1.77-.44c.75-.19,1.51.26,1.71,1l3.41,12.34h.02c7.57,22.47,28.79,37.66,53.81,37.66,31.36,0,56.78-25.42,56.78-56.78,0,0-.19-57.92-.53-68.1-.03-.78.59-1.43,1.38-1.46,20.12-.85,30.03-14.12,33.04-19.07.53-.87,0-1.98-1.02-2.14Z"/>
    <rect class="cls-3" x="173.74" y="105.23" width="16.23" height="32.42" rx="8.11" ry="8.11"/>
    <rect class="cls-3" x="111.93" y="106.23" width="16.23" height="32.42" rx="8.11" ry="8.11" transform="translate(-10.21 10.93) rotate(-5)"/>
    <rect class="cls-3" x="95.97" y="67.19" width="42.37" height="21.2" rx="10.6" ry="10.6" transform="translate(-17.53 37.33) rotate(-16.86)"/>
    <rect class="cls-3" x="171.81" y="72.81" width="21.2" height="35.21" rx="9.69" ry="9.69" transform="translate(43.31 239.08) rotate(-73.27)"/>
    <path class="cls-3" d="M141.31,172.74c-14.16-5.65-14.18-15.87-12.78-21.74.45-1.88,2.81-2.49,4.09-1.04,3.76,4.27,11.92,10.59,25.5,7.2,1.74-.44,3.33,1.11,2.91,2.86-1.58,6.46-6.35,18.05-19.71,12.72Z"/>
    <path class="cls-1" d="M245.1,242.85c-8.7,2.66-17.82,2.06-25.57-2.06l-1.99,18.4c-.14,2.67-3.39,3.92-5.26,2.01-11.1-11.29-22.3-19.62-22.3-19.62l-11.38,29.78,18.12,8.11,8.05,38.78,27.48,4.38c1.52.41,3.1.67,4.73.75h0c12.51,0,23.26-10.22,23.91-22.71l5.76-73.72c.04-.69,0-1.37-.07-2.04-4.04,8.58-12.12,15.44-21.47,17.94Z"/>
    <path class="cls-1" d="M240.58,233.62l-1.9.07c-11.52.43-21.28-7.45-21.69-17.5l-1.11-27.36c-.27-6.59,5.7-12.22,13.25-12.5l22.71-.84c7.56-.28,13.96,4.89,14.22,11.48l.88,21.77c.53,13.13-11.34,24.32-26.38,24.88Z"/>
    <g id="vTZhWa">
      <path class="cls-2" d="M215.64,143.13c-2.59-.85-4.3-3.5-3.62-6.1l5.52-21.02c.83-3.17,3.08-5.6,6.77-4.48l11.77,3.56c17.73,5.36,17.45,28.34,14.4,43.06-3.87,18.72-10.29,36.59-19.63,53.28-6.89,12.31-21,29.65-36.66,23.7-4.5-1.71-8.74-3.59-13.12-5.53-2.97-1.31-3.72-4.57-2.41-7.33l9.29-19.66c1.35-2.86,4.32-3.74,6.99-2.66l9.06,3.68c5.87,2.39,14.3-6.23,17.57-12.01,5.97-10.56,11.81-26.21,8.78-38.44-.58-2.34-2.67-6.12-4.93-6.86l-9.78-3.2Z"/>
    </g>
    <path class="cls-1" d="M256.62,164.65c-10.8-9.8-25.37-2.83-25.37-2.83-6.03,2.67-9.58,8.24-9.08,14.24l6.37,27.59c.74,8.94,10.03,15.72,20.15,14.7l3.08-.31c8.91-.89,15.34-7.57,14.86-15.45l-.48-23.35c-1.2-8.31-9.52-14.59-9.52-14.59Z"/>
    <path class="cls-2" d="M255.37,87.7l18.84-36.47c4.22-7.53,15.29-1.82,11.59,5.99-.16.31-.37.63-.57.91l-24.56,32.89c-2.33,3.03-7,.09-5.3-3.32h0Z"/>
    <path class="cls-2" d="M276.46,106.81l49.53-26.25c3.67-1.94,8.22-.55,10.16,3.12,1.94,3.67.55,8.22-3.12,10.16-.3.16-.65.31-.95.42l-52.69,19.13c-4.21,1.45-6.83-4.45-2.93-6.59h0Z"/>
    <path class="cls-2" d="M280,136.21l45.92-.47c3.6-.04,6.55,2.85,6.58,6.45s-2.85,6.55-6.45,6.58c-.31,0-.66-.02-.96-.06l-45.5-6.27c-3.8-.59-3.45-6.14.4-6.24h0Z"/>
    <path class="cls-1" d="M197.51,251.01c-5.96-10.64-15.95-16.17-25.57-20.53-.05,2.33-.12,4.67-.19,7-.02,1.76-.31,3.53-.94,5.18-6.09,15.33-26.56,8.96-35.39-.47-.4-.42-.38-1.09.02-1.51.39-.41,1.02-.45,1.47-.11,4.11,3.07,8.86,5.09,13.72,5.87,2.45.4,5.13.58,7.56.22,3.69-.67,6.66-3.84,7.02-7.54.08-3.36-.22-6.73-.2-10.09-.06-4.41-.07-8.82.08-13.22-12.79,2.86-26.49,1.66-38.4-3.78-.36-.16-.72-.34-1.08-.51v6.4c0,1.95.19,3.85.53,5.71-7.12.96-14.16,2.81-20.99,5.52-16.4,5.56-25.68,18.81-32.46,37.8-4.41,11.68-7.43,44.88-8.3,63.59h153.29c-5-24.33-14.14-67.98-20.17-79.53Z"/>
  </g>
</svg>